<svg viewBox="0 0 150 45" fill="none" xmlns="http://www.w3.org/2000/svg">
<g clip-path="url(#clip0_1_29)">
<path fill-rule="evenodd" clip-rule="evenodd" d="M76.52 43.9274C76.3269 45.3577 73.2466 45.3577 73.0535 43.9264C72.2423 45.4568 69.8792 45.0226 69.5431 43.484C68.5715 44.899 66.3218 44.239 66.1072 42.7494C65.1663 43.7752 63.2997 43.3644 62.8767 42.0363C55.9539 39.1889 50.8854 34.0377 48.9034 27.8872C48.4958 27.7125 48.128 27.4489 47.8358 27.0689C45.6944 27.5726 43.3016 28.5809 42.4199 26.1872C40.5309 26.6919 36.5668 28.0109 35.3674 24.8028C32.5966 25.1808 28.5661 25.4322 28.0625 22.5358C25.6697 22.5358 21.5136 22.1567 21.5136 19.387C19.1209 19.387 14.9647 17.7503 15.4684 15.8602C13.327 15.6089 10.4306 13.3418 10.4306 11.8308C8.29018 11.2014 5.89642 9.5647 6.40112 7.42329C5.14141 6.66828 3 5.78658 3 4.52687C3 3.26818 4.00532 2.2598 5.13937 2.2598C6.27341 2.2598 10.5552 2.5193 12.0663 2.5193C13.5773 2.5193 31.8396 2.26695 36.1214 2.5193C40.4042 2.77063 45.819 2.89016 48.4641 2.63781C50.4134 2.45289 57.0522 2.07283 61.0367 3.13741C69.4797 -1.04631 80.0959 -1.04529 88.5369 3.13741C92.5224 2.07181 99.1601 2.45187 101.108 2.63985C103.754 2.89118 109.169 2.77267 113.451 2.52134C117.733 2.26899 135.995 2.52134 137.505 2.52134C139.016 2.52134 143.298 2.26184 144.432 2.26184C145.566 2.26184 146.574 3.27022 146.574 4.52891C146.574 5.7876 144.432 6.6693 143.173 7.42533C143.678 9.56572 141.284 11.2035 139.144 11.8328C139.144 13.3438 136.247 15.6109 134.105 15.8622C134.609 17.7513 130.454 19.389 128.06 19.389C128.06 22.1598 123.905 22.5378 121.512 22.5378C121.007 25.4342 116.978 25.1829 114.207 24.8049C113.008 28.0119 109.045 26.6929 107.155 26.1892C106.273 28.582 103.88 27.5746 101.739 27.0709C101.46 27.4315 101.092 27.7134 100.671 27.8893C98.6891 34.0387 93.6217 39.1899 86.6979 42.0373C86.2749 43.3655 84.4083 43.7762 83.4674 42.7504C83.2528 44.24 81.0031 44.901 80.0315 43.485C79.6943 45.0236 77.3323 45.4578 76.52 43.9274ZM52.9993 27.5746C52.3795 27.871 51.7143 28.061 51.0315 28.1365C52.9604 33.2132 57.3372 37.5246 63.2496 40.1002L66.2911 34.9449C62.4619 33.5462 59.352 31.2311 57.4823 28.3868C56.0806 28.915 53.74 29.2675 52.9993 27.5746ZM62.8093 41.4386C62.8296 41.1331 62.9025 40.8335 63.0249 40.5528C56.946 37.8996 52.4516 33.4308 50.5054 28.1723C50.1652 28.1784 49.8249 28.1508 49.497 28.0793C51.4841 33.8599 56.2819 38.6822 62.8093 41.4386ZM66.2247 41.5929C66.2584 41.4846 68.5306 35.7142 68.5184 35.6335C67.9237 35.4803 67.3424 35.3086 66.7754 35.1165L63.6828 40.3577C62.3843 42.6053 65.2541 43.9825 66.2216 41.6021C66.2228 41.5991 66.2239 41.596 66.2247 41.5929ZM69.4951 42.3336C69.4951 42.3336 70.9509 36.1454 70.9448 36.1229C70.339 36.032 69.7433 35.9196 69.1589 35.7868L66.7008 41.7594C66.0255 43.9887 68.8964 44.7151 69.4951 42.3336ZM72.8655 42.7096C72.8676 42.6585 73.2987 36.4202 73.2773 36.365C72.6694 36.3303 72.0707 36.2731 71.4802 36.1985C71.4751 36.2118 70.0703 42.2774 70.0703 42.2753C69.5063 44.8275 72.652 45.2719 72.8655 42.7096ZM73.4131 42.6707C73.263 45.2157 76.4322 45.1646 76.2421 42.6564C76.236 42.6064 75.8457 36.4866 75.8171 36.4335C75.2113 36.4948 74.3418 36.4774 73.7534 36.4529C73.7483 36.4682 73.4131 42.6718 73.4131 42.6707ZM5.07194 3.76675C4.22498 4.41244 5.5041 5.86525 7.88662 6.33828C12.291 7.21181 19.9116 7.23735 21.3767 7.23735C23.2657 7.23735 36.576 7.04732 37.6467 6.98397C38.7174 6.92063 38.5284 6.03996 37.6467 5.7876C35.6953 5.15724 23.2269 3.77186 21.4635 3.77186C19.7001 3.77186 10.6318 3.51951 6.72806 3.51951C5.96079 3.56242 5.35392 3.55118 5.07194 3.76675ZM9.35986 8.43065C9.04519 8.43065 8.3525 8.36833 8.98185 9.25003C9.61222 10.1317 12.0673 11.0768 13.894 11.0134C23.5917 11.2024 36.3747 9.75473 37.7601 9.43903C40.4931 8.81786 39.6553 7.66542 37.0674 7.80131C35.871 7.86465 25.6064 8.43065 24.2843 8.49399C22.9613 8.55734 11.6269 8.49399 9.35986 8.43065ZM13.7683 12.5878C12.1306 12.6501 14.838 14.8549 17.1685 14.9172C24.1577 14.7915 37.9297 12.1332 39.0821 11.8951C40.4532 11.6121 41.2195 9.86711 37.8235 10.3841C33.9186 11.2024 15.3427 12.5878 13.7683 12.5878ZM18.4905 16.4916C18.4905 16.4916 16.7843 17.1455 20.8056 17.9495C21.993 18.1745 23.2031 18.2561 24.41 18.1927C27.2564 18.0404 39.7605 14.9969 40.9089 14.6659C42.1982 14.294 42.9226 11.9094 39.3345 12.8391C35.3674 13.9098 20.6952 16.2392 18.4905 16.4916ZM24.41 19.766C23.5957 20.5507 26.7404 21.4661 28.4405 21.4661C33.1003 21.2137 42.9236 17.1209 43.6163 16.8063C44.735 16.2975 44.1997 14.5494 42.4199 15.1696C38.7675 16.5539 25.9844 19.4514 24.41 19.766ZM45.253 17.1209C43.8053 17.8136 34.9894 21.5294 31.5882 22.2854C31.1162 22.4111 30.6176 22.6195 30.6575 22.8821C30.9599 24.8927 37.2186 23.1825 37.6528 23.0435C40.0599 22.2722 44.9669 20.471 47.0481 18.443C46.5444 18.1916 45.3797 17.3733 45.253 17.1209ZM47.8981 19.2623C46.9541 19.8917 40.7822 23.1048 37.9491 23.9855C36.4687 24.479 38.0268 26.0012 40.9181 25.1768C44.1138 24.6813 48.7798 20.9001 49.5358 20.2074C49.1578 20.0184 48.3394 19.5147 47.8981 19.2623ZM50.7955 20.9634C49.6543 21.744 47.4578 23.2029 46.0632 24.1336C45.488 24.5178 44.1149 25.2769 44.1445 25.8838C44.1588 26.1739 44.7105 26.7246 47.2309 25.8092C48.7982 25.1676 50.6954 23.8629 52.3066 21.5304C51.9919 21.4344 51.1725 21.1514 50.7955 20.9634ZM53.6286 21.9074C53.0381 22.498 52.2749 23.3051 51.5281 24.0488C50.8405 24.9356 49.308 25.5742 49.8352 26.5989C50.4063 27.7084 52.2044 26.1116 52.8521 25.5006C53.7676 24.6353 54.6513 23.492 54.9833 22.3478C54.542 22.2221 54.0383 22.0964 53.6286 21.9074ZM31.7149 3.26818C31.2736 3.3305 31.2736 3.64517 31.9039 3.71158C33.3516 3.89957 40.2448 5.50971 42.0705 5.82438C43.8972 6.13906 49.2845 6.16664 52.9993 6.29231C54.2038 6.33317 55.1897 6.47416 55.9897 6.68973C61.0622 8.05877 58.0964 11.2729 56.7774 13.9119C56.0214 15.4863 57.0921 15.6753 57.8471 15.99C57.9727 11.5815 60.8702 9.88142 61.8142 9.18873C62.6172 8.60025 63.7502 7.78598 63.7502 6.43023C63.7502 5.38813 63.2701 4.41857 59.9221 3.73099C54.5358 2.62453 46.6997 3.64619 40.9089 3.64619C38.8931 3.64619 33.3526 3.26818 31.7149 3.26818ZM46.2726 7.09738C45.5176 7.1597 45.8323 8.54508 47.0287 8.23347C45.7689 8.92514 46.4616 9.80786 47.658 9.61783C46.9653 10.5618 48.036 11.1289 48.98 10.8142C47.847 12.3263 49.6104 12.3886 50.2397 11.8849C49.2957 13.8363 50.8691 13.774 51.8141 13.0179C51.1848 14.4656 52.5068 14.5913 53.5775 13.9619C52.7592 14.906 53.7042 15.5363 54.2079 15.1583C54.7749 14.6546 56.195 13.2478 56.7263 12.5766C59.4388 9.14275 56.757 7.31295 53.0013 7.13416C51.6435 7.06979 47.5947 7.09738 46.2726 7.09738ZM42.5783 6.42819C42.0685 6.39549 39.8566 6.03587 39.9097 7.22815C39.9628 8.42146 42.4199 7.9709 42.9246 7.87691C43.8543 7.70425 44.5971 7.42023 44.5756 7.03506C44.5542 6.63967 43.5856 6.49153 42.5783 6.42819ZM42.6682 8.47254C42.1308 8.51341 40.1988 8.41839 40.5002 9.50953C40.5952 9.85281 41.3053 10.5475 43.6807 9.9703C44.7217 9.71693 45.2612 9.1591 45.2612 8.7157C45.2612 8.32849 43.8615 8.38161 42.6682 8.47254ZM44.1935 10.2441C43.8114 10.3074 41.5965 10.4587 41.9673 11.5753C42.2268 12.3538 42.6253 12.1076 43.3006 12.1883C43.746 12.2415 47.046 11.3117 46.5301 10.2533C46.3768 9.93863 45.4062 10.0449 44.1935 10.2441ZM45.2888 11.8267C43.0922 12.7186 43.1208 13.3224 43.2209 13.6483C43.32 13.9752 44.3274 14.3788 46.4116 13.3602C47.4669 12.8442 47.4802 12.2578 47.2207 11.843C46.8969 11.323 46.0775 11.5059 45.2888 11.8267ZM46.8264 13.3265C44.5399 14.1234 44.6707 14.8508 44.8515 15.2779C45.0507 15.7499 45.773 16.2525 47.6815 15.0367C48.8339 14.3032 49.5838 13.6881 49.3785 13.1998C49.1925 12.7564 48.1024 12.8718 46.8264 13.3265ZM47.7213 15.617C47.1216 15.9808 46.8488 16.4732 47.2269 17.0341C47.9032 18.0394 49.8975 16.2658 50.3981 15.7233C50.77 15.3208 51.008 14.8978 50.7976 14.5882C50.58 14.2695 49.9036 14.294 47.7213 15.617ZM51.3319 15.7877C48.6694 17.1455 48.9249 17.8034 49.2957 18.0844C49.7054 18.395 50.6709 18.7209 52.2851 16.8553C52.9931 16.038 52.6039 15.143 51.3319 15.7877ZM52.6611 17.2119C52.0992 17.8402 50.7822 18.7873 51.8019 19.4932C52.6611 20.0878 53.1648 19.435 53.5877 19.0304C56.0336 16.6775 55.2244 15.1879 52.6611 17.2119ZM86.3576 26.1933C86.3576 24.1847 84.2888 22.1761 81.9911 21.4834C81.377 21.3445 81.4741 20.7989 81.9522 20.5834C82.412 20.3749 85.0938 18.5053 85.056 16.1504C85.056 13.8649 82.3732 10.4014 74.5574 10.4014C69.9599 10.4014 66.1287 11.4405 63.8299 13.3806C64.3653 13.7964 64.9793 14.4197 64.9793 15.1123V27.7881C64.9027 28.5503 64.5196 29.1735 63.9055 29.8662C65.9693 31.3313 69.6647 32.7289 74.9702 32.7115C80.6404 32.5726 86.3576 30.9032 86.3576 26.1933ZM60.6955 4.87832C60.439 4.74959 60.6638 4.29904 60.9213 4.42777C63.3671 5.53525 63.8218 7.08308 61.709 8.57471C61.474 8.74022 61.1838 8.32849 61.4188 8.16298C63.3385 6.8062 62.5651 5.81315 60.6955 4.87832ZM74.9456 20.0919C72.507 20.0919 70.53 18.5129 70.53 16.5651C70.53 14.6174 72.507 13.0384 74.9456 13.0384C77.3843 13.0384 79.3613 14.6174 79.3613 16.5651C79.3613 18.5129 77.3843 20.0919 74.9456 20.0919ZM75.5147 29.8468C72.7809 29.8468 70.5648 28.18 70.5648 26.1238C70.5648 24.0677 72.7809 22.4009 75.5147 22.4009C78.2485 22.4009 80.4647 24.0677 80.4647 26.1238C80.4647 28.18 78.2485 29.8468 75.5147 29.8468ZM55.7629 20.0419C55.9355 19.1827 56.2124 18.348 56.5822 17.5459C56.5608 17.5143 55.9059 16.6765 54.2927 19.0079C53.4018 20.2942 54.9752 20.8122 55.7629 20.0419ZM55.7108 24.0018C55.0467 24.7732 54.4204 25.4209 54.0066 25.9379C53.1423 27.0188 55.391 28.3511 56.6027 26.8145C56.1828 25.9203 55.8829 24.9746 55.7108 24.0018ZM86.704 3.85257C87.0603 3.65072 87.4353 3.48376 87.8237 3.354C79.7607 -0.446595 69.8128 -0.446595 61.7508 3.354C62.1697 3.49907 62.5457 3.66458 62.8696 3.85257C70.3359 0.600611 79.303 0.629218 86.704 3.85257ZM90.4157 13.8516C89.5105 10.7028 87.2506 9.42167 86.374 8.80867C84.6116 7.57756 84.7077 5.75798 86.2136 4.18972C79.018 1.1564 70.4718 1.19113 63.361 4.18972C64.8669 5.75798 64.9619 7.57756 63.2006 8.80867C62.324 9.42167 60.0631 10.7028 59.1589 13.8516C66.8449 5.93064 82.7297 5.92962 90.4157 13.8516ZM96.5753 27.5746C95.8336 29.2675 93.493 28.915 92.0922 28.3868C90.2226 31.2311 87.1127 33.5462 83.2824 34.9449L86.325 40.1002C92.2373 37.5246 96.6131 33.2132 98.5441 28.1365C97.8609 28.0613 97.1953 27.8713 96.5753 27.5746ZM86.7653 41.4386C93.2927 38.6822 98.0915 33.8599 100.078 28.0793C99.7462 28.1493 99.4078 28.1805 99.0692 28.1723C97.1229 33.4308 92.6286 37.8996 86.5497 40.5528C86.6721 40.8335 86.745 41.1331 86.7653 41.4386ZM83.3488 41.5929L83.3529 41.6021C84.3204 43.9825 87.1903 42.6053 85.8918 40.3577L82.7992 35.1165C82.2322 35.3086 81.6519 35.4803 81.0562 35.6335C81.044 35.7142 83.3161 41.4846 83.3488 41.5929ZM80.0785 42.3336C80.6782 44.7151 83.5481 43.9887 82.8727 41.7594C82.8727 41.7594 80.5434 36.0963 80.4146 35.7868C79.8312 35.9196 79.2356 36.032 78.6298 36.1229C78.6236 36.1454 80.0785 42.3336 80.0785 42.3336ZM76.709 42.7096C76.9226 45.2719 80.0673 44.8275 79.5033 42.2753C79.5043 42.2774 78.0995 36.2118 78.0934 36.1985C77.5029 36.2731 76.9032 36.3303 76.2963 36.365C76.2759 36.4202 76.707 42.6585 76.709 42.7096ZM144.503 3.76675C144.221 3.55118 143.614 3.56242 142.847 3.51951C138.943 3.51951 129.874 3.77186 128.111 3.77186C126.348 3.77186 113.879 5.15724 111.928 5.7876C111.046 6.03996 110.857 6.92063 111.928 6.98397C112.999 7.04732 126.308 7.23735 128.197 7.23735C129.663 7.23735 137.284 7.21181 141.687 6.33828C144.072 5.86525 145.351 4.41244 144.503 3.76675ZM140.214 8.43065C137.947 8.49399 126.613 8.55734 125.29 8.49399C123.968 8.43065 113.704 7.86465 112.507 7.80131C109.919 7.66542 109.08 8.81786 111.814 9.43903C113.199 9.75473 125.983 11.2024 135.68 11.0134C137.505 11.0768 139.961 10.1317 140.592 9.25003C141.222 8.36833 140.529 8.43065 140.214 8.43065ZM135.806 12.5878C134.232 12.5878 115.656 11.2024 111.751 10.3841C108.355 9.86711 109.121 11.6121 110.492 11.8951C111.645 12.1332 125.416 14.7915 132.406 14.9172C134.736 14.8549 137.443 12.6501 135.806 12.5878ZM131.084 16.4916C128.88 16.2392 114.207 13.9098 110.241 12.8391C106.653 11.9094 107.376 14.294 108.667 14.6659C109.814 14.9969 122.318 18.0404 125.165 18.1927C126.371 18.2561 127.582 18.1745 128.769 17.9495C132.79 17.1455 131.084 16.4916 131.084 16.4916ZM125.165 19.766C123.59 19.4514 110.807 16.5539 107.155 15.1696C105.376 14.5494 104.84 16.2975 105.958 16.8063C106.651 17.1209 116.474 21.2137 121.134 21.4661C122.834 21.4661 125.979 20.5507 125.165 19.766ZM104.321 17.1209C104.195 17.3733 103.03 18.1916 102.525 18.443C104.607 20.471 109.515 22.2722 111.921 23.0435C112.355 23.1825 118.614 24.8927 118.916 22.8821C118.956 22.6195 118.457 22.4111 117.985 22.2854C114.585 21.5294 105.768 17.8136 104.321 17.1209ZM101.675 19.2623C101.235 19.5147 100.417 20.0184 100.038 20.2074C100.794 20.9001 105.46 24.6813 108.655 25.1768C111.547 26.0012 113.105 24.479 111.624 23.9855C108.791 23.1048 102.619 19.8917 101.675 19.2623ZM98.7801 20.9634C98.401 21.1514 97.5827 21.4344 97.269 21.5304C98.8802 23.8629 100.777 25.1676 102.345 25.8092C104.865 26.7246 105.417 26.1739 105.431 25.8838C105.461 25.2769 104.088 24.5178 103.512 24.1336C102.118 23.2029 99.9202 21.744 98.7801 20.9634ZM95.9449 21.9074C95.5363 22.0964 95.0326 22.2221 94.5912 22.3478C94.9233 23.492 95.808 24.6353 96.7235 25.5006C97.3702 26.1116 99.1683 27.7084 99.7394 26.5989C100.268 25.5742 98.7351 24.9356 98.0465 24.0488C97.2997 23.3051 96.5355 22.498 95.9449 21.9074ZM117.86 3.26818C116.222 3.26818 110.681 3.64619 108.666 3.64619C102.874 3.64619 95.0377 2.62453 89.6525 3.73099C86.3045 4.41857 85.8243 5.38813 85.8243 6.43023C85.8243 7.78598 86.9563 8.60025 87.7594 9.18873C88.7044 9.88142 91.6019 11.5815 91.7275 15.99C92.4825 15.6753 93.5532 15.4863 92.7982 13.9119C91.4782 11.2729 88.5134 8.05877 93.5859 6.68973C94.3859 6.47416 95.3718 6.33317 96.5774 6.29231C100.292 6.16664 105.679 6.13906 107.505 5.82438C109.331 5.50971 116.224 3.89957 117.672 3.71158C118.301 3.64517 118.301 3.3305 117.86 3.26818ZM103.301 7.09738C101.979 7.09738 97.93 7.06979 96.5723 7.13416C92.8166 7.31295 90.1347 9.14275 92.8473 12.5766C93.3785 13.2478 94.7986 14.6546 95.3657 15.1583C95.8693 15.5363 96.8144 14.906 95.995 13.9619C97.0667 14.5913 98.3888 14.4656 97.7594 13.0179C98.7034 13.774 100.278 13.8363 99.3338 11.8849C99.9632 12.3886 101.727 12.3263 100.593 10.8142C101.538 11.1289 102.608 10.5618 101.915 9.61783C103.112 9.80786 103.805 8.92514 102.544 8.23347C103.742 8.54508 104.057 7.1597 103.301 7.09738ZM106.996 6.42819C105.989 6.49153 105.02 6.63967 104.999 7.03506C104.977 7.42023 105.72 7.70425 106.65 7.87691C107.155 7.9709 109.612 8.42146 109.665 7.22815C109.718 6.03587 107.506 6.39549 106.996 6.42819ZM106.907 8.47254C105.713 8.38161 104.314 8.32849 104.314 8.7157C104.314 9.1591 104.853 9.71693 105.895 9.9703C108.27 10.5475 108.979 9.85281 109.074 9.50953C109.377 8.41839 107.444 8.51341 106.907 8.47254ZM105.38 10.2441C104.168 10.0449 103.198 9.93863 103.043 10.2533C102.528 11.3117 105.828 12.2415 106.273 12.1883C106.948 12.1076 107.347 12.3538 107.606 11.5753C107.977 10.4587 105.762 10.3074 105.38 10.2441ZM104.286 11.8267C103.497 11.5059 102.678 11.323 102.353 11.843C102.093 12.2578 102.108 12.8442 103.163 13.3602C105.247 14.3788 106.254 13.9752 106.354 13.6483C106.453 13.3224 106.481 12.7186 104.286 11.8267ZM102.747 13.3265C101.471 12.8718 100.382 12.7564 100.195 13.1998C99.9887 13.6881 100.739 14.3032 101.891 15.0367C103.801 16.2525 104.523 15.7499 104.722 15.2779C104.903 14.8508 105.034 14.1234 102.747 13.3265ZM101.852 15.617C99.671 14.294 98.9936 14.2695 98.776 14.5882C98.5655 14.8978 98.8046 15.3208 99.1755 15.7233C99.6761 16.2658 101.671 18.0394 102.347 17.0341C102.725 16.4732 102.452 15.9808 101.852 15.617ZM98.2427 15.7877C96.9707 15.143 96.5814 16.038 97.2895 16.8553C98.9037 18.7209 99.8692 18.395 100.279 18.0844C100.65 17.8034 100.905 17.1455 98.2427 15.7877ZM96.9125 17.2119C94.3501 15.1879 93.541 16.6775 95.9868 19.0304C96.4088 19.435 96.9125 20.0878 97.7727 19.4932C98.7913 18.7873 97.4744 17.8402 96.9125 17.2119ZM88.8791 4.87832C87.0095 5.81315 86.2361 6.8062 88.1568 8.16298C88.3908 8.32849 88.1006 8.74022 87.8656 8.57471C85.7538 7.08308 86.2085 5.53525 88.6544 4.42777C88.9108 4.29904 89.1356 4.74959 88.8791 4.87832ZM93.8117 20.0419C94.5994 20.8122 96.1728 20.2942 95.2809 19.0079C93.6677 16.6765 93.0128 17.5143 92.9913 17.5459C93.3622 18.348 93.638 19.1827 93.8117 20.0419ZM93.8628 24.0018C93.6942 24.9724 93.3918 25.9144 92.9719 26.8145C94.1836 28.3511 96.4323 27.0188 95.568 25.9379C95.1542 25.4209 94.5269 24.7732 93.8628 24.0018Z" fill="white"/>
</g>
<defs>
<clipPath id="clip0_1_29">
<rect width="150" height="45" fill="currentColor"/>
</clipPath>
</defs>
</svg>
