<svg width="36" height="42" viewBox="0 0 36 42" fill="none" xmlns="http://www.w3.org/2000/svg">
<path d="M33.7568 12.508C33.7568 15.8088 32.2781 18.7542 29.9655 20.6805L2.72672 4.7595C2.62122 4.69781 2.52501 4.62309 2.43977 4.53881C2.41698 4.51622 2 4.1374 2 3.47619C2 3.0687 2.16036 2.69943 2.42032 2.43269C2.67943 2.16508 3.03816 2 3.434 2H23.5485C29.1856 2 33.756 6.70488 33.756 12.508H33.7568Z" fill="#0E0E0E" stroke="white" stroke-width="3.8161" stroke-miterlimit="10"/>
<path d="M33.7569 28.853C33.7569 34.6561 29.1866 39.361 23.5494 39.361H3.43487C2.73181 39.361 2.00092 38.7893 2.00092 37.8857C2.00092 37.2332 2.40013 36.8657 2.44233 36.8205L2.44402 36.8187C2.52842 36.7362 2.62294 36.6632 2.72591 36.6024L13.4424 30.3388L29.963 20.6822H29.9647V20.6814C32.2773 22.6077 33.756 25.5531 33.756 28.8539L33.7569 28.853Z" fill="#0E0E0E" stroke="white" stroke-width="3.8161" stroke-miterlimit="10"/>
<path d="M29.9655 20.6805H29.9638L13.4431 30.3379L2.72668 36.6015C2.62287 36.6623 2.52831 36.7353 2.44476 36.8178C6.38123 32.6473 8.80609 26.9554 8.80609 20.6805C8.80609 14.4055 6.3804 8.7093 2.44055 4.5379C2.5258 4.62218 2.62201 4.69691 2.72751 4.7586L29.9663 20.6796L29.9655 20.6805Z" fill="#0E0E0E" stroke="white" stroke-width="3.8161" stroke-miterlimit="10"/>
</svg>
