<svg viewBox="0 0 150 45" fill="none" xmlns="http://www.w3.org/2000/svg">
<path fill-rule="evenodd" clip-rule="evenodd" d="M84.6711 18.4916C83.9211 17.5625 84.3253 16.0542 85.4377 15.1751C86.5502 14.2959 88.1709 14.4126 88.8542 15.2459C89.6167 16.1709 89.2667 17.6625 88.1584 18.5416C87.0501 19.4207 85.4211 19.4165 84.6711 18.4916ZM30.4026 9.06283C34.1418 7.69558 38.0121 6.71821 41.9521 6.14629C44.8645 5.74631 48.1435 6.0588 49.1185 8.45036C50.0893 10.8378 48.581 15.1459 40.0522 18.9457C31.7526 22.6456 21.178 24.433 14.5825 24.5747C13.4213 25.97 12.4193 27.4904 11.5951 29.1078C10.8285 30.5786 10.4743 32.0493 10.5285 33.1326C10.6493 35.5658 12.5576 36.8616 15.4866 36.6241C17.0699 36.495 18.9073 35.7867 20.9072 34.7325C24.882 32.6368 29.5152 29.1245 34.0316 25.8788C34.6524 25.4329 36.0065 24.5122 36.1065 24.4455C38.7398 22.7164 41.123 21.6081 43.9187 20.954C44.8103 20.7457 46.3436 20.5207 48.031 20.5748C50.5142 20.6498 52.9058 21.1123 54.1891 21.8956C53.5599 22.2873 52.9683 22.8164 52.6308 23.1122C49.2185 26.0954 46.4436 29.5911 45.0478 31.7743C44.6478 32.3993 44.3853 33.2618 44.6978 33.5451C44.9603 33.7867 45.5311 33.7909 46.4103 33.2326C48.0977 32.1618 51.7225 28.8036 53.9266 26.912C54.4432 26.4704 57.5264 24.158 58.5389 23.5539L58.6014 23.5122C60.7721 22.2206 62.7554 21.5415 64.1261 21.1706C67.2302 20.329 70.0925 20.4707 70.5717 20.8123C73.3445 18.2505 76.0616 15.6292 78.7213 12.9502C80.0171 12.9502 82.5045 12.946 83.8753 12.9168C83.4209 13.2222 82.9854 13.5547 82.5712 13.9126C81.2337 15.2001 76.7881 19.4707 73.2007 23.1039C69.3134 27.037 67.1343 29.5744 65.9886 31.566C65.4053 32.5743 65.1594 33.3909 65.5094 33.6784C65.8886 33.9951 66.6635 33.7367 67.551 33.1493C69.5634 31.816 75.159 26.7537 77.1089 24.808C77.1089 24.808 80.3671 21.5623 81.0962 20.8873C82.392 20.8915 84.7711 20.8831 86.1377 20.854C85.7669 21.104 85.0877 21.5706 84.8044 21.8414C82.1837 24.3622 78.638 28.0453 77.0881 30.2619C75.8673 32.0118 76.0256 33.1118 76.4464 33.5534C77.2506 34.3951 79.7963 33.9076 83.5128 31.8743C83.2045 30.1994 83.792 27.6162 85.1044 25.5913C87.9168 21.2498 93.804 15.8042 98.3455 13.521C100.625 12.3752 102.087 12.1835 102.987 12.9043C104.07 13.771 103.741 15.7709 102.541 17.6416C98.8996 23.2997 94.9081 26.7037 87.1543 31.7035C87.1501 33.0326 87.8876 33.9159 89.7917 33.9159C92.2791 33.9159 94.7748 33.0451 97.3913 31.7327C97.1414 30.0827 97.808 27.5079 99.0621 25.5746C101.854 21.2706 107.774 15.7834 112.291 13.5085C114.653 12.321 116.032 12.2044 116.924 12.9002C118.057 13.7835 117.678 15.8209 116.399 17.7999C112.87 23.2664 108.899 26.6537 101.012 31.741C100.887 33.1784 101.633 33.8867 102.766 33.8534C104.57 33.8034 106.824 32.2701 110.162 29.2453C111.253 28.2578 114.899 24.9955 115.77 24.4288C118.436 22.6789 120.799 21.5914 123.578 20.929C125.296 20.562 127.061 20.4567 128.811 20.6165C130.782 20.7707 132.636 21.1748 133.852 21.8664C133.181 22.2873 132.54 22.8581 132.248 23.1122C129.364 25.6527 126.826 28.5607 124.698 31.7618C124.257 32.4576 124.057 33.2576 124.344 33.5243C124.653 33.8034 125.253 33.7034 126.032 33.2118C127.719 32.141 134.277 26.1579 134.344 26.0913C137.01 23.483 139.994 21.5831 143.123 20.6207C145.96 19.7499 148.831 19.8957 149.697 21.8248C150.939 24.5872 148.222 28.0245 144.06 28.7911L143.66 27.3329C145.706 25.9954 147.564 23.4039 146.614 22.3831C145.923 21.6373 144.443 22.0123 143.227 22.7122C141.119 23.9247 138.152 26.6996 136.44 29.5994C135.323 31.4827 135.181 33.4034 136.24 34.3701C137.281 35.32 138.81 35.3742 140.285 35.0159C143.548 34.2242 146.31 32.0785 148.577 29.6453L149.235 31.5285C146.731 34.1326 143.806 35.9575 140.777 36.7325C137.365 37.6074 134.852 37.2241 133.223 35.5367C132.111 34.3867 131.677 32.5076 131.998 30.5786C130.032 32.4076 128.511 33.7826 127.294 34.6242C125.782 35.67 123.84 36.4283 122.444 35.4867C121.032 34.5367 121.274 32.1035 121.836 31.0119C120.301 32.4201 118.635 33.6786 116.861 34.77C114.511 36.1991 112.203 36.2741 111.137 34.97C110.462 34.1409 110.207 32.791 110.724 31.1077C108.845 32.7785 106.991 34.2659 105.233 35.1325C104.182 35.68 103.008 35.9469 101.824 35.9075C99.7538 35.8117 98.5955 34.7825 97.9372 33.4201C94.3623 35.2992 91.8208 35.9158 89.2042 35.9158C86.7001 35.9158 85.0419 34.87 84.1669 33.4993C82.73 34.3803 81.1854 35.0721 79.5713 35.5575C77.3172 36.1783 75.1007 36.1575 74.009 35.0409C73.2007 34.2159 72.6133 32.6451 73.4549 30.3869C71.3675 32.3451 69.8551 33.7284 68.5843 34.62C67.1177 35.645 64.8761 36.52 63.547 35.4575C62.0179 34.2326 62.572 31.9077 63.122 30.9785C62.6637 31.4077 62.2304 31.7702 61.8012 32.1368C60.6202 33.142 59.3684 34.061 58.0556 34.8867C55.8473 36.295 54.0391 36.17 52.9808 35.5033C51.6392 34.6659 51.5684 32.6618 52.1225 30.8702C50.2767 32.566 48.7935 33.8534 47.6394 34.6534C46.0853 35.7325 44.1895 36.445 42.7729 35.4908C41.2188 34.4451 41.7938 31.7618 42.1521 31.0702C41.4688 31.6952 40.7188 32.2868 39.9564 32.8701C39.0769 33.5509 38.1632 34.1865 37.219 34.7742C34.9941 36.1241 32.6317 36.3741 31.5192 35.0159C30.6484 33.9492 30.411 32.1327 31.6234 29.7661C24.532 35.3283 18.6781 39.1198 13.295 39.1198C7.60779 39.1198 4.54125 33.8784 6.25368 28.537C6.75328 26.9552 7.4758 25.4526 8.39942 24.0747C3.18298 23.1414 0.308105 21.329 0.020618 18.1166C-0.250203 15.0792 2.20386 12.9335 4.03711 11.7252C5.45476 10.7846 6.95869 9.98101 8.52858 9.32532C12.7326 7.58373 18.9781 6.44211 23.8196 6.6046L24.657 8.45452C24.4404 8.41703 24.2029 8.39619 23.9446 8.37119C22.1113 8.22537 18.8365 8.48786 15.4824 9.32115C12.4826 10.0628 9.17438 11.3836 7.13697 13.1252C4.2621 15.5834 4.36626 18.0624 5.35372 19.529C6.24535 20.8498 7.52446 21.6248 9.91602 22.0789C10.7993 21.0498 11.8201 20.0498 12.9826 19.0249C17.9657 14.6543 24.2071 11.3002 30.4026 9.06283ZM16.5116 22.5122C25.532 22.2039 33.5525 18.4249 40.1022 15.2376C44.7187 12.9918 47.7977 10.5461 47.1019 8.93367C46.8811 8.42119 46.2061 8.1462 45.377 8.06704C44.3375 7.98556 43.2919 8.03455 42.2646 8.21287C39.3856 8.63785 36.094 9.62531 32.29 11.5044C30.9234 12.1794 29.4943 12.9668 27.9902 13.8876C25.157 15.6209 22.1613 17.7499 18.9865 20.3332C18.1323 21.0257 17.3067 21.7527 16.5116 22.5122ZM101.479 15.5C102.454 14.1001 101.749 13.6001 100.404 14.4918C97.3497 16.5125 94.5207 19.2291 92.2541 21.8039C89.9292 24.4455 87.9209 27.512 87.421 29.4536C89.9625 27.7453 92.4666 25.4996 94.629 23.3414C97.5913 20.3707 100.233 17.2916 101.479 15.5ZM115.428 15.5C116.399 14.1084 115.72 13.5876 114.345 14.4918C109.224 17.8624 102.624 25.0121 101.345 29.5036C103.866 27.8578 106.924 25.0746 109.591 22.3164C112.174 19.6457 114.361 17.0291 115.428 15.5ZM127.744 22.7914C127.519 22.6164 126.757 22.3914 125.873 22.3831C124.915 22.3747 123.761 22.7039 122.682 23.2872C118.861 25.3663 116.007 28.1328 114.032 31.266C113.386 32.2951 113.436 33.1284 113.716 33.3826C114.103 33.7367 114.853 33.6451 116.178 32.9951C119.011 31.6077 123.532 27.2037 127.744 22.7914ZM68.8468 22.8414C68.4886 22.612 68.0792 22.4746 67.6552 22.4414C66.5869 22.324 65.5076 22.5179 64.547 22.9997C61.3346 24.5413 58.1639 27.0495 55.539 30.8994C54.8057 31.9743 54.5724 33.0993 54.9682 33.4701C55.3932 33.8659 56.3265 33.7284 57.4431 33.0868C61.1388 30.9577 65.1303 26.6746 68.8468 22.8414ZM43.3396 27.5829C44.8978 26.0913 46.5186 24.458 48.0935 22.8039C47.8435 22.6206 47.0186 22.4081 46.2019 22.4039C45.277 22.3956 44.0104 22.7664 43.0104 23.308C39.4949 25.1747 36.5234 27.9209 34.3858 31.2785C33.7358 32.3201 33.7691 33.1159 34.0816 33.4034C34.4774 33.7659 35.2107 33.6701 36.519 33.0284C38.2856 32.1577 40.723 30.0869 43.3396 27.5829ZM148.014 37.0949C147.17 37.0949 146.485 36.4103 146.485 35.5658C146.485 34.7213 147.17 34.0367 148.014 34.0367C148.859 34.0367 149.543 34.7213 149.543 35.5658C149.543 36.4103 148.859 37.0949 148.014 37.0949ZM148.014 36.9158C148.76 36.9158 149.364 36.3114 149.364 35.5658C149.364 34.8203 148.76 34.2159 148.014 34.2159C147.269 34.2159 146.664 34.8203 146.664 35.5658C146.664 36.3114 147.269 36.9158 148.014 36.9158ZM147.447 36.4325V34.7159H148.197C148.343 34.7159 148.485 34.7242 148.614 34.8034C148.743 34.8742 148.806 35.0284 148.806 35.17C148.806 35.5075 148.568 35.6325 148.264 35.6408L148.785 36.4325H148.535L148.043 35.6408H147.656V36.4325H147.447ZM147.656 34.87V35.4783H147.977C148.218 35.4783 148.589 35.52 148.589 35.17C148.589 34.9075 148.356 34.8742 148.143 34.8742H147.656V34.87Z" fill="currentColor"/>
</svg>
