<svg width="150" height="45" viewBox="0 0 150 45" fill="none" xmlns="http://www.w3.org/2000/svg">
<path fill-rule="evenodd" clip-rule="evenodd" d="M62.4962 10.5121C65.1404 10.5105 67.3944 12.8123 66.8506 15.7439L64.4835 28.5172C63.8601 31.8787 61.0098 34.249 57.5901 34.2458L44.726 34.2347C41.6463 34.2331 39.0229 31.5491 39.6559 28.1327L41.9553 15.7248C42.5206 12.6754 45.1034 10.5257 48.2054 10.5233L62.4962 10.5121ZM53.6912 28.6542C56.3035 28.6558 56.9293 27.8134 57.3911 25.7298L58.8847 17.6946C59.1116 16.4756 58.1642 15.7479 57.3982 15.7479H52.594C50.4323 15.7495 49.4371 16.2957 48.9013 19.1859L47.5422 26.5172C47.1664 28.5451 48.9323 28.6526 50.1226 28.6542H53.6912ZM75.9853 28.6406L83.2689 28.655L88.5779 0.0119429L95.7651 0L89.4171 34.2434L71.5521 34.2355C68.228 34.2323 65.8283 31.6526 66.4812 28.1287L68.7814 15.72C69.3467 12.6698 71.9295 10.5312 75.0307 10.5288L85.0532 10.5304L84.0826 15.7614L79.4193 15.7622C77.2577 15.763 76.225 16.2901 75.6884 19.1803L74.3293 26.5116C74.0976 27.7616 74.7106 28.639 75.9853 28.6406ZM101.349 10.5488L119.617 10.5296L114.391 38.6408C113.265 44.7166 109.624 44.9825 106.307 44.9809H106.016L106.019 44.9889L90.4657 45L91.4609 39.5915H104.522C106.253 39.5915 107.297 38.3582 107.532 37.0922L111.497 15.7622L105.729 15.7654C103.569 15.767 102.476 16.2989 101.94 19.189L100.581 26.5204C100.204 28.5483 102.062 28.6398 103.252 28.6398H107.547L106.511 34.2363H97.8559C94.531 34.2347 92.1441 31.7856 92.8192 28.1422L95.1194 15.7336C95.6839 12.6841 98.2469 10.5511 101.349 10.5488ZM128.472 24.5339L129.274 20.2336H136.646L137.206 17.6954C137.424 16.4764 136.516 15.7487 135.78 15.7487H131.169C129.095 15.7503 128.14 16.2965 127.626 19.1866L126.321 26.518C125.96 28.5459 127.654 28.6406 128.798 28.6422L142.284 28.6438L141.245 34.2466L123.618 34.2355C120.662 34.2339 118.145 31.5499 118.753 28.1335L120.959 15.7256C121.501 12.6762 123.981 10.5265 126.957 10.5241L140.673 10.5129C143.209 10.5113 145.372 12.8131 144.851 15.7447L143.287 24.5371L128.472 24.5339ZM9.73336 8.69601L10.7819 3.04305L34.057 3.04464C38.4839 3.04464 41.4123 4.99372 40.6169 10.4803L37.6065 26.7226C36.1781 32.5531 33.9671 34.2355 24.6142 34.2371L5 34.2259L9.20867 11.5161L17.3155 11.5201L14.2231 28.2147H25.8801C26.9311 28.2099 28.8412 27.6565 29.4972 25.0888L32.0467 11.3322C32.2871 9.96196 31.2632 8.69124 29.1119 8.69522L9.73336 8.69601Z" fill="white"/>
</svg>
