<svg width="150" height="45" viewBox="0 0 150 45" fill="none" xmlns="http://www.w3.org/2000/svg">
<path d="M139.677 11.8028C142.519 11.8028 144.82 10.9517 144.82 9.90142C144.82 8.85188 142.519 8 139.677 8C136.836 8 134.533 8.85114 134.533 9.90142C134.533 10.951 136.836 11.8028 139.677 11.8028Z" fill="currentColor"/>
<path fill-rule="evenodd" clip-rule="evenodd" d="M108.722 33.3602V21.3616C108.722 19.5214 108.641 17.6023 106.692 16.2422C104.841 14.9492 101.889 14.9581 100.556 14.9621C100.487 14.9623 100.422 14.9625 100.362 14.9625C99.1448 14.9625 95.0874 14.9625 93.2196 17.0425C91.5628 18.8889 91.6322 20.672 91.6686 21.6084C91.6732 21.7268 91.6773 21.8317 91.6773 21.9214H96.9941C96.9941 21.9214 97.3578 19.202 98.0889 18.4822C98.8237 17.7579 100.768 16.9621 102.269 18.2417C102.821 18.7138 103.039 19.3215 103.039 20.0015V23.4408C103.039 23.7616 102.714 24.241 102.309 24.241C102.309 24.241 94.9228 24.4011 93.6252 25.3614C93.5585 25.4107 93.4922 25.4591 93.4265 25.5072L93.4255 25.508C92.2131 26.3948 91.1902 27.143 91.1902 30.4807C91.1902 33.9996 92.0829 35.3597 93.1388 36.0803C93.2566 36.1607 93.3673 36.242 93.4777 36.3232C94.3563 36.9689 95.2156 37.6004 99.4688 37.6004H110.831V35.28C109.858 35.28 108.722 34.4805 108.722 33.3602ZM102.473 35.1996C102.716 35.1996 103.04 34.9201 103.04 34.7202V28.1995C103.04 27.5195 102.797 26.4802 101.539 26.4802L101.444 26.4801C100.129 26.4782 97.1168 26.4737 97.1168 29.3995V32.4795C97.1168 33.5202 97.684 35.1996 99.6731 35.1996H102.473Z" fill="currentColor"/>
<path fill-rule="evenodd" clip-rule="evenodd" d="M43.6325 30.8805H37.9513V33.0408C37.9513 33.92 37.7889 35.7609 35.1107 35.7609C32.4325 35.7609 31.6213 34.0004 31.6213 32.7207V28.1611C31.6213 27.7614 31.9461 27.2008 32.514 27.2008H43.6325V21.3616C43.6325 18.7219 43.0645 17.9216 41.9278 16.802C40.7919 15.6817 36.8146 15.3623 35.0291 15.3623C30.4846 15.3623 29.0232 16.0018 27.7248 17.0417C26.4265 18.0817 25.9393 20.2412 25.9393 21.841V30.8798C25.9393 33.279 26.4265 34.9592 27.968 36.4793C29.5096 37.9994 34.2172 37.9994 35.1915 37.9994L35.3185 37.9997C36.4223 38.003 39.5051 38.0121 41.7655 36.3996C44.1197 34.7202 43.6325 30.8805 43.6325 30.8805ZM34.8675 17.7623C32.0269 17.7623 31.6213 19.6822 31.6213 20.9618V23.9216C31.6213 24.4011 32.1085 24.8008 32.5949 24.8008H36.9777C37.5457 24.8008 37.9513 24.3207 37.9513 23.8413V20.9618C37.9513 19.8422 37.7081 17.7623 34.8675 17.7623Z" fill="currentColor"/>
<path d="M55.1408 16.0018C55.1408 16.642 55.952 17.2814 56.4392 17.4415C57.0071 17.0417 60.0101 15.3623 62.3636 15.3623C64.717 15.3623 65.9345 16.5616 65.9345 18.4018V27.2008H60.2541V20.402C60.2541 19.5221 60.0101 18.8819 59.199 18.8023C58.387 18.7226 56.2768 20.402 55.7088 21.2023V33.3609C55.7088 34.4813 56.8455 35.2808 57.8191 35.2808V37.6011H47.9181V35.2011C48.8917 35.2011 49.9468 34.881 50.0284 33.4413V19.9211C50.0284 19.5214 49.3788 18.401 47.9181 18.401V16.0018H55.1408Z" fill="currentColor"/>
<path d="M78.3513 17.4415C77.8649 17.2814 77.0537 16.642 77.0537 16.0018H69.831V18.401C71.2917 18.401 71.9413 19.5214 71.9413 19.9211V33.4413C71.8597 34.881 70.8046 35.2011 69.831 35.2011V37.6011H79.732V35.2808C78.7577 35.2808 77.6217 34.4813 77.6217 33.3609V21.2023C78.1889 20.402 80.2992 18.7226 81.1104 18.8023C81.923 18.8819 82.1655 19.5221 82.1655 20.402V27.2008H87.8467V18.4018C87.8467 16.5616 86.6299 15.3623 84.2765 15.3623C81.923 15.3623 78.9201 17.0417 78.3513 17.4415Z" fill="currentColor"/>
<path d="M135.1 16.0018H145V18.4018C143.945 18.4018 142.89 19.1216 142.89 20.0812V33.3602C142.89 34.4805 144.026 35.28 145 35.28V37.6004H135.1V35.2004C136.073 35.2004 137.128 34.8803 137.209 33.4406V19.9219C137.209 19.5214 136.56 18.4018 135.1 18.4018V16.0018Z" fill="currentColor"/>
<path d="M122.275 17.4415C121.789 17.2814 120.976 16.642 120.976 16.0018H113.753V18.401C115.214 18.401 115.863 19.5214 115.863 19.9211V33.4413C115.783 34.881 114.728 35.2011 113.753 35.2011V37.6011H123.654V35.2808C122.68 35.2808 121.544 34.4813 121.544 33.3609V21.2023C122.113 20.402 124.223 18.7226 125.034 18.8023C125.845 18.8819 126.089 19.5221 126.089 20.402V27.2008H131.771V18.4018C131.771 16.5616 130.554 15.3623 128.2 15.3623C125.845 15.3623 122.844 17.0417 122.275 17.4415Z" fill="currentColor"/>
<path d="M5 34.7202V37.5996H19.2038V34.7202H17.7423C15.6321 34.7202 14.7393 33.3609 14.7393 32.6403V25.9212C14.7393 24.6408 15.5512 24.3214 16.5255 24.4011C17.7386 24.5006 18.635 25.8408 18.635 26.641H21.0701V17.7616H18.635C18.635 20.4013 16.9311 20.4809 16.444 20.4809C15.9568 20.4809 14.9833 20.2412 14.7393 19.6018V14.1623C14.7393 12.0824 16.1192 11.8427 17.1743 11.8427H132.047V8.163H7.19181L5.08157 11.8427H6.94786C8.97655 11.8427 9.05811 14.3223 9.05811 15.3623V32.6403C9.05811 34.5602 7.43427 34.7202 6.6231 34.7202H5Z" fill="currentColor"/>
</svg>
