<svg width="85" height="45" viewBox="0 0 85 45" fill="none" xmlns="http://www.w3.org/2000/svg">
<path fill-rule="evenodd" clip-rule="evenodd" d="M21.7532 8.78498C23.8097 8.78498 25.477 10.4517 25.477 12.5085C25.477 14.5654 23.8097 16.2322 21.7532 16.2322H4.72388C2.66717 16.2322 1 14.5654 1 12.5085C1 10.4517 2.66717 8.78498 4.72375 8.78498H21.7532ZM20.0415 18.5423C22.0984 18.5423 23.7655 20.2094 23.7655 22.2661C23.7655 24.3228 22.0984 25.9898 20.0415 25.9898H10.3491C9.52238 25.9928 8.84575 26.6468 8.8141 27.4651V32.3185C8.8141 34.3749 7.14693 36.0419 5.09076 36.0419C3.03405 36.0419 1.36688 34.3749 1.36688 32.3185V24.0589C1.36688 21.0123 3.83659 18.5422 6.88331 18.5422L20.0415 18.5423ZM27.168 11.7237C27.168 9.66731 28.8352 8 30.8918 8C32.9486 8 34.6155 9.66731 34.6155 11.7237V32.3445C34.6155 34.4012 32.9487 36.0682 30.8918 36.0682C28.8353 36.0682 27.168 34.4011 27.168 32.3445V11.7237ZM72.9991 28.6824L74.4955 28.6787C74.8013 28.6784 75.0491 28.4305 75.0493 28.1247C75.0516 28.052 75.0383 27.9796 75.0102 27.9125L69.4459 18.5622L60.7532 33.6139C60.0817 34.7779 58.8759 35.4416 57.6245 35.475C57.5872 35.4802 57.5496 35.4829 57.5119 35.4829H43.3652C40.3183 35.4829 37.8485 33.0129 37.8485 29.9664V11.724C37.8485 9.66744 39.5158 8.00013 41.5722 8.00013C43.6285 8.00013 45.296 9.66744 45.296 11.7239V26.5001C45.2986 27.3271 45.9525 28.0042 46.7714 28.035H54.685C54.8885 27.9724 55.511 27.7608 55.7006 27.4662L65.6405 10.2595C66.3947 8.96439 67.7977 8.09252 69.4036 8.09252C71.0103 8.09252 72.4136 8.96573 73.1645 10.2635L82.8503 26.5251C83.5975 27.4966 84.0018 28.6883 84 29.9139C84 32.9896 81.5067 35.4826 78.4315 35.4826H67.1414C65.2627 35.4826 63.7412 33.9602 63.7412 32.0821C63.7412 30.2046 65.2629 28.6824 67.1414 28.6824H72.9991Z" fill="currentColor"/>
</svg>
