<svg width="150" height="45" viewBox="0 0 150 45" fill="none" xmlns="http://www.w3.org/2000/svg">
<path d="M93.5695 25.7423C94.95 24.054 96.6382 22.9031 97.9818 23.0564C99.6293 23.2478 99.7838 24.8597 98.9782 26.3552L99.4004 26.471C99.4004 26.471 98.0962 28.6577 96.7539 30.0006C94.3758 32.4169 92.8408 31.6113 92.4956 31.3429C92.1503 31.0746 91.8819 30.1157 92.0346 29.1562C92.1503 28.1973 92.879 26.5861 93.5695 25.7423Z" fill="currentColor"/>
<path fill-rule="evenodd" clip-rule="evenodd" d="M20.1433 22.5191C20.1439 32.801 44.8872 41.1257 75.5002 41.1257C106.075 41.1257 130.895 32.801 130.895 22.5191C130.895 12.2766 106.075 3.95189 75.5002 3.95189C44.8872 3.95189 20.1433 12.2766 20.1433 22.5191ZM73.0568 10.8562C72.0852 10.5315 71.2293 10.2454 70.5299 10.0557C70.6404 10.1602 70.7174 10.3302 70.6289 10.5509C70.5901 10.6278 70.2067 11.0494 70.054 11.1645C69.9438 11.2637 69.7955 11.3835 69.6139 11.5302C68.5321 12.4043 66.2698 14.2322 63.8391 18.3383C66.1409 18.2232 68.8262 17.7628 68.8262 17.7628C68.8262 17.7628 68.673 17.2643 68.673 16.8421C68.788 15.1927 69.7469 14.195 70.9748 14.387C71.666 14.5021 72.1257 15.0776 72.1257 15.6912C72.1257 16.3436 71.6272 17.3025 71.128 17.7628C70.7821 18.0305 70.3981 18.2995 69.9383 18.5297C69.9383 18.9519 70.5131 19.2972 71.0123 19.3359C70.9802 19.4535 70.96 19.5532 70.9435 19.6351C70.9006 19.8467 70.882 19.9389 70.744 19.9114C69.593 19.9114 69.1327 18.7986 69.1327 18.7986C67.599 19.067 66.1028 19.259 63.0716 19.5661C55.4375 31.919 53.0593 33.9525 48.3788 33.9525C45.0411 33.9525 42.0875 31.7658 42.0106 27.8527C41.9718 25.4746 43.8902 22.5585 47.458 21.6759C47.8802 21.6759 48.0335 21.8298 48.0335 22.06C48.0335 22.2139 47.8802 22.4053 47.5343 22.5585C46.4985 22.9426 44.6958 24.9754 44.6958 26.8557C44.6958 28.2749 45.5784 29.848 47.074 30.1927C47.4118 30.2853 47.7252 30.2789 48.0335 30.2727C48.1104 30.2712 48.1871 30.2696 48.2637 30.2696C51.9847 30.2696 56.1662 26.0882 60.6929 19.72C59.9642 19.7582 56.8567 20.1041 56.0892 20.986C55.7446 21.2543 55.5144 21.1011 55.4375 20.794C55.4375 20.717 55.5526 20.4487 55.6683 20.2948C56.7846 19.0386 59.9325 18.6715 61.1564 18.5287C61.278 18.5145 61.3806 18.5026 61.4604 18.4922C64.7498 13.4484 68.9441 10.2151 70.1297 9.95403C70.1042 9.94805 70.079 9.94225 70.054 9.93663C67.0998 9.24608 64.4146 8.67062 62.3042 8.67062C54.9002 8.67062 51.6007 11.855 51.7546 14.7705C51.8315 15.9595 52.7897 16.727 54.2096 16.458C55.7446 16.1897 57.8925 14.7317 58.4298 13.4657C58.5449 13.1973 58.8521 13.1585 58.9671 13.2355C59.1973 13.4275 59.1204 13.6958 59.1204 13.6958C58.9284 15.192 56.6265 19.3353 52.6371 19.3353C50.4123 19.3353 48.9161 17.2637 48.9542 15.2302C48.9924 11.4322 52.8673 7.59602 62.4192 7.59602C64.2219 7.59602 66.2554 7.74926 68.4809 8.13332C71.0504 8.59368 77.4568 9.66766 82.674 9.7446C82.9846 9.7446 83.3092 9.74661 83.6437 9.74869C85.3757 9.75944 87.371 9.77183 89.0428 9.51441C90.051 9.34941 90.4723 9.24569 90.7295 9.18237C91.0106 9.11317 91.0958 9.0922 91.5367 9.0922C92.3035 9.0922 92.3035 9.39932 92.3035 9.70644C92.3035 10.9343 88.0064 13.2743 84.3616 13.2743C80.2926 13.2743 76.1051 11.8749 73.0568 10.8562ZM89.9005 26.3321C89.9348 26.3011 89.9687 26.2704 90.0023 26.2401C90.5456 25.7288 91.0388 25.2125 91.5134 24.7159C93.3173 22.8277 94.8506 21.2229 97.8279 21.2531C99.8585 21.2873 100.53 22.7428 100.923 23.5958C100.968 23.6935 101.01 23.7832 101.049 23.862L105.998 15.4992H109.029L100.82 30.0388C100.791 30.0956 100.755 30.1617 100.714 30.2346C100.538 30.5548 100.289 31.0061 100.32 31.3811C100.399 32.1098 101.319 31.9184 100.974 31.9184C102.623 31.8415 105.653 28.6958 106.382 27.929L106.392 27.9168C106.546 27.7221 106.808 27.3917 106.957 27.3917C107.111 27.3917 107.418 27.5449 107.418 27.7751C107.418 27.929 107.073 28.5038 106.804 28.8491C105.269 30.7675 102.738 33.7211 99.8607 33.798C98.4415 33.798 97.9036 33.2226 97.7122 32.1104C97.0604 32.6852 94.8349 33.6829 92.5719 33.6829C90.6916 33.6448 89.9241 32.532 89.5413 31.6501C89.1961 30.9214 89.0422 29.8474 89.3105 28.7734C88.2747 29.3107 87.3158 29.387 85.9347 29.3489C84.3228 29.3101 83.3251 28.5814 82.8273 26.7011C82.4067 27.4722 82.0782 28.0731 81.7992 28.5835C80.8564 30.308 80.4791 30.9981 79.0293 33.7217H75.7685L79.95 26.6248C80.4879 25.6653 80.7563 24.8985 80.947 24.0935C81.0627 23.6325 80.7175 23.2103 80.2183 23.1727C79.6816 23.1727 78.8003 23.71 77.9553 24.515C77.9553 24.515 75.8073 26.8169 74.2342 29.1568C72.7374 31.3824 70.1679 33.9137 67.3675 33.9137C65.334 33.9137 63.4926 32.8016 63.1092 30.653C63.1092 30.653 62.9171 31.1515 61.1138 32.1874C61.089 32.1997 61.0582 32.2161 61.0235 32.2346C60.8435 32.3301 60.5586 32.4815 60.4627 32.4175C60.1168 32.1111 59.9254 31.727 59.8866 31.458C59.9935 31.494 60.1995 31.3311 60.8116 30.8471C60.8588 30.8098 60.9084 30.7705 60.9606 30.7293C62.3798 29.6554 62.6869 28.8103 62.6869 28.8103C62.9644 28.2237 63.417 27.3634 63.8029 26.6299C63.8963 26.4523 63.9858 26.2821 64.068 26.1251C65.2196 23.8232 67.2136 21.4833 70.4744 21.3682C71.0117 21.3682 71.1649 21.5983 71.28 21.7904C71.5865 22.0206 71.472 22.4809 71.472 22.4809C69.1702 22.8262 67.5977 24.1685 66.6382 25.4733C66.0634 26.3171 65.4491 27.6982 65.334 28.6952C65.1039 30.4216 65.9095 31.5719 67.0986 31.8408C69.3234 32.1861 71.1649 30.5748 72.6229 28.0816C73.007 27.4292 73.2753 25.741 73.2753 24.8203C73.2753 23.8995 72.7762 22.9407 72.3927 22.5566C72.3927 21.9048 72.8143 21.4826 73.3128 21.4826C73.4661 21.4826 73.62 21.4826 73.7732 21.6359C74.5407 22.4033 74.9629 23.8614 74.9629 24.9735C74.9629 25.3576 74.9629 25.741 74.886 26.1251C74.9518 26.0451 75.0184 25.9641 75.0856 25.8824C76.6627 23.9649 78.5944 21.6161 80.1039 21.138C80.4103 20.9847 80.7175 20.9847 81.0239 20.9847C83.9012 20.9078 83.5178 23.5167 83.5178 23.5167C85.0515 21.7522 86.1261 21.0998 87.5454 21.1761C89.0803 21.2531 89.617 22.3277 89.617 23.1715C89.5782 24.1685 88.8508 25.3194 87.5854 25.3576C86.4714 25.3576 85.8196 24.8203 85.4743 23.8232C84.7457 24.0922 84.401 24.5907 84.2471 25.5877C84.0163 26.8538 84.9758 27.8514 86.203 27.8514C88.221 27.852 89.1518 27.0097 89.9005 26.3321Z" fill="currentColor"/>
<path fill-rule="evenodd" clip-rule="evenodd" d="M16 22.5191C16 34.9489 42.6242 45 75.5002 45C108.338 45 134.962 34.9483 134.962 22.5191C134.962 10.0899 108.338 0 75.5002 0C42.6242 0 16 10.0899 16 22.5191ZM132.698 22.5191C132.698 33.7211 107.111 42.6982 75.5002 42.6982C43.9665 42.6982 18.3406 33.7211 18.3406 22.5191C18.3406 11.3559 43.9665 2.26367 75.5002 2.26367C107.111 2.26367 132.698 11.3559 132.698 22.5191Z" fill="currentColor"/>
</svg>
