<svg width="150" height="45" viewBox="0 0 150 45" fill="none" xmlns="http://www.w3.org/2000/svg">
<path fill-rule="evenodd" clip-rule="evenodd" d="M112.253 24.0266C112.162 29.0456 113.246 31.704 117.383 31.704C121.514 31.704 122.106 27.1755 122.106 23.7295C122.106 20.2813 121.323 16.9338 116.983 16.9338C114.321 16.9338 112.355 19.0025 112.253 24.0266ZM103.883 45V11.0264H112.355V12.4045C112.355 14.2427 113.096 13.4847 113.694 12.7683C113.794 12.6486 115.682 10.3373 119.935 10.3373C124.174 10.3373 130.77 13.2907 130.77 23.7296C130.77 31.8041 126.835 37.7115 120.039 37.7115C116.295 37.7115 114.13 36.2371 113.635 35.6421C113.139 35.0553 112.451 34.9529 112.451 35.6421V44.9999L103.883 45ZM38.3974 0H47.5559V24.0266C47.5559 28.1595 45.7814 36.8276 33.0804 36.8276C20.378 36.8276 19 28.7485 19 24.2222V19.7916H27.8629V24.1222C27.8629 26.7806 29.6359 29.2412 32.982 29.2412C36.3295 29.2412 38.3974 27.3711 38.3974 24.2222V0ZM66.7092 20.3821C66.7092 17.9177 65.3334 15.5548 62.1823 15.5548C59.1297 15.5548 58.0456 17.7191 58.0456 20.3821H66.7092ZM61.2991 10.0417C68.4914 10.0417 74.7907 12.7979 74.7907 25.501H57.7568C57.7568 29.5384 59.4291 31.2128 62.3831 31.2128C65.3379 31.2128 66.3219 28.8477 66.3219 28.8477H74.6943C74.6943 32.4924 69.6716 37.4159 62.0875 37.3181C53.4246 37.3181 49.1895 30.9172 49.1895 24.3193C49.1895 17.7191 52.9288 10.0417 61.2991 10.0417ZM93.9401 20.3821C93.9401 17.9177 92.5628 15.5548 89.4116 15.5548C86.3606 15.5548 85.2742 17.7191 85.2742 20.3821H93.9401ZM88.53 10.0417C95.7215 10.0417 102.019 12.7979 102.019 25.501H84.9861C84.9861 29.5384 86.6599 31.2128 89.6162 31.2128C92.568 31.2128 93.5535 28.8477 93.5535 28.8477H101.926C101.926 32.4924 96.9024 37.4159 89.3207 37.3181C80.6532 37.3181 76.4181 30.9172 76.4181 24.3193C76.4181 17.7191 80.162 10.0417 88.53 10.0417Z" fill="currentColor"/>
</svg>
