<svg width="150" height="45" viewBox="0 0 150 45" fill="none" xmlns="http://www.w3.org/2000/svg">
<path fill-rule="evenodd" clip-rule="evenodd" d="M59.9944 22.007C62.4558 25.5178 64.9308 29.0191 67.4193 32.5109C67.5407 32.6689 67.5896 33.2776 67.0904 33.2776L61.8563 33.3142C61.3083 33.3142 60.7849 32.8757 60.5173 32.5593L57.2551 28.5422L54.1757 24.7325L54.1638 32.4862C54.1638 32.815 53.872 33.3018 53.5308 33.3142L48.7109 33.3384C48.3698 33.3384 47.8829 32.8032 47.8829 32.4501V13.8386C47.8829 13.6441 47.007 13.4979 47.0189 12.7919C47.0308 12.074 47.3838 11.9278 47.7733 11.9278H53.3975C53.7017 11.9278 54.2008 12.2324 54.2008 12.7069L54.1766 19.6696L57.2561 15.6407L59.471 12.7558C59.7875 12.3544 60.5178 11.8918 60.8831 11.8918L65.7884 11.9283C66.2995 11.9283 66.5917 12.342 66.3483 12.7074L59.9944 22.007ZM78.0574 11.9288C78.4835 11.9288 78.8849 12.2329 78.8849 12.7074V32.4871C78.8849 32.9502 78.7393 33.2786 78.1917 33.2786L75.2218 33.3028L73.2256 33.3151C72.7995 33.3151 72.4949 32.9863 72.4949 32.4871V13.7057C72.4949 13.6934 71.7035 13.4865 71.582 12.7321C71.6916 12.3183 71.8377 11.9288 72.4949 11.9288H78.0574ZM94.9888 2.33688C109.657 6.01278 119.772 13.6815 119.771 22.5062C119.771 31.3313 109.656 38.9996 94.9883 42.6755C89.0728 44.1725 82.4151 45 75.3794 45H75.2214C68.8427 45 62.7569 44.2944 57.2551 43.0403C41.809 39.5106 31 31.6236 31 22.5062C31 13.3893 41.809 5.50175 57.2556 1.97152C62.7574 0.717908 68.8437 0.0118623 75.2218 0.0118623C75.2821 0.0118623 75.331 0 75.3798 0C82.4156 0 89.0732 0.839853 94.9888 2.33688ZM94.9887 37.7701C107.806 34.8245 116.534 29.0788 116.534 22.5062C116.534 15.9335 107.806 10.1883 94.9887 7.24267C89.1586 5.89178 82.4759 5.125 75.3798 5.125H75.2218C68.7948 5.13687 62.6966 5.78218 57.2556 6.91432C43.6348 9.75036 34.2379 15.6782 34.2379 22.5066C34.2379 29.3351 43.6348 35.2629 57.2556 38.099C62.6966 39.2311 68.7948 39.8764 75.2218 39.8764C75.2821 39.8764 75.331 39.8883 75.3798 39.8883C82.4759 39.8883 89.1586 39.1215 94.9887 37.7701ZM98.8227 12.7321L105.542 32.536C105.627 32.7794 105.31 33.3151 105.043 33.3151L100.442 33.2786C100.138 33.2786 99.5662 32.8283 99.4808 32.5483L95.3783 19.9624C95.3422 19.8405 95.1596 19.7797 94.9892 19.7797C94.8801 19.7797 94.7705 19.8286 94.7335 19.9135C94.0402 22.007 93.3337 24.1005 92.6277 26.1944L90.5342 32.4748C90.3757 32.9498 89.8277 33.2781 89.4386 33.2781L85.0201 33.3147C84.6306 33.3147 84.3511 32.7305 84.4602 32.4141L90.8018 13.7057C90.863 13.5477 89.7427 13.5838 89.7546 12.5129C89.7546 12.148 90.12 11.9288 90.3876 11.9288H97.9097C98.324 11.9288 98.6409 12.3178 98.8227 12.7321Z" fill="white"/>
</svg>
