<svg width="150" height="45" viewBox="0 0 150 45" fill="none" xmlns="http://www.w3.org/2000/svg">
<path fill-rule="evenodd" clip-rule="evenodd" d="M21.9089 24.8148V19.6394C21.9089 17.9878 23.0739 17 24.6806 17H38.6433C40.25 17 41.415 17.9878 41.415 19.6394V24.8148C41.415 26.4672 40.25 27.4534 38.6433 27.4534H24.6806C23.0739 27.4534 21.9089 26.4672 21.9089 24.8148ZM0 17.0008H17.1176C18.754 17.0008 19.462 18.5634 19.462 20.0082V21.2173C19.462 23.0453 18.3708 24.373 16.469 24.373H2.38925V27.4534H0V17.0008ZM43.9951 17.0008H61.1856C62.4091 17.0008 63.53 17.8114 63.53 19.0942V21.8074C63.53 22.9427 62.6449 23.5464 61.6426 23.8126C63.0874 24.4909 63.3825 25.9942 63.53 27.4534H61.1856C61.0822 25.8763 60.4039 24.373 58.5911 24.373H46.3835V27.4534H43.9951V17.0008ZM85.1575 17.0008V19.0942H69.265C68.6308 19.0942 68.3654 19.5512 68.3654 20.1557C68.3654 20.7306 68.6605 21.1732 69.265 21.1732H82.2247C84.3477 21.1732 85.4975 22.1906 85.4975 24.3578C85.4975 26.1714 84.5249 27.4534 82.6384 27.4534H66.3466V25.36H82.2255C82.7707 25.36 83.0072 24.8885 83.0072 24.4019C83.0072 23.843 82.8901 23.2521 82.2255 23.2521H68.7639C67.0241 23.2521 66.0219 21.9108 66.0219 20.2447C66.0219 18.1658 67.1419 17.0016 69.2658 17.0016L85.1575 17.0008ZM106.565 17.0008V19.0942H90.8781C90.5101 19.0942 90.377 19.4478 90.377 19.7581V24.8452C90.377 25.1555 90.5694 25.3608 90.8781 25.3608H106.565V27.4542H90.8781C89.1679 27.4542 88.0046 26.2748 88.0046 24.5494V20.0683C88.0046 18.0928 88.844 17.0016 90.8781 17.0016L106.565 17.0008ZM109.13 17.0008H111.534V21.0697H125.408V17.0008H127.87V27.4534H125.408V23.1631H111.534V27.4534H109.13V17.0008ZM130.391 17.0008H150V19.0942H132.779V21.1146H150V23.1928H132.779V25.36H150V27.4534H130.391V17.0008ZM25.6836 25.36H37.8031C38.5399 25.36 39.1444 25.0361 39.1444 24.195V20.2592C39.1444 19.4189 38.5551 19.0942 37.8031 19.0942H25.6836C24.9316 19.0942 24.3271 19.4189 24.3271 20.2592V24.195C24.3271 25.0361 24.946 25.36 25.6836 25.36ZM2.38925 19.0942V22.2788H16.012C16.6021 22.2788 17.1176 22.0431 17.1176 21.3792V20.2006C17.1176 19.5079 16.7047 19.095 16.012 19.095L2.38925 19.0942ZM46.3835 22.2788H60.5963C61.0678 22.2788 61.1856 21.8803 61.1856 21.4826V20.0667C61.1856 19.3884 60.9355 19.0934 60.242 19.0934H46.3835V22.2788Z" fill="white"/>
</svg>
