<svg width="85" height="45" viewBox="0 0 85 45" fill="none" xmlns="http://www.w3.org/2000/svg">
<path fill-rule="evenodd" clip-rule="evenodd" d="M45.7331 2.14026C46.0056 2.09643 46.4598 3.10009 46.7308 3.01143C47.0177 2.91281 47.4187 2.06853 47.8097 2.11884C47.977 2.14076 48.6415 3.47118 48.6415 3.47118C53.9941 3.73517 60.6018 10.2224 61.4531 10.8789C61.8625 11.1957 63.5959 12.9888 66.7638 14.378C68.0663 14.9498 69.3748 15.1954 70.5877 15.1052C72.2065 14.9887 74.0171 13.5671 75.1303 11.631C76.527 9.20926 77.1197 4.99037 81.1498 2.59901C81.7142 2.26429 82.9923 1.51614 83.7315 2.45904C84.3262 3.22263 83.8341 4.48281 83.2159 5.08601C82.8239 5.46705 82.1146 5.85258 80.7643 6.48865C80.307 6.70632 79.5609 7.26468 79.27 7.49231C77.823 8.59361 76.775 11.096 75.6095 13.8361C75.6095 13.8361 75.1119 15.1824 72.9217 16.6304C72.5517 16.8695 72.8844 17.0737 73.2878 17.5892C73.8034 18.2721 74.8384 21.053 74.7039 25.2848C74.6825 26.036 74.9864 26.3622 75.3286 26.9774C75.9203 28.0383 77.0923 27.8012 77.0624 29.1934C77.0226 31.0623 78.4038 31.4603 77.9605 32.323C77.6367 32.9516 77.7493 33.5617 77.7503 34.1754C77.7503 34.4847 77.9177 34.937 77.2771 34.9041C74.6506 34.7457 74.826 31.2232 74.8753 30.0108C74.9171 29.8504 74.7966 29.5635 74.7762 29.5496C74.6457 29.4554 73.0104 28.1833 72.9013 28.0752C70.9149 26.0554 69.6054 24.2388 68.8737 22.373C68.3886 21.1287 67.8895 19.9019 67.0367 19.1134C66.0814 18.2422 64.9118 17.7521 63.8843 17.7456C56.5782 17.7083 55.0744 14.503 53.087 12.9056C53.0268 12.8618 52.8454 12.7592 52.7403 12.7502C52.6288 12.7587 52.5426 12.8902 52.4699 12.9515C51.7033 13.7559 50.9293 14.0184 49.8902 14.0184C47.4217 14.0184 44.7658 11.8546 44.2981 12.3368C43.941 12.7129 44.2513 13.4869 43.5948 13.6164C42.6449 13.8067 41.6627 12.8693 41.7404 12.0753C41.8843 10.6532 43.3383 10.2368 44.6144 10.0914C45.6709 9.97981 46.5326 10.2687 46.7303 10.2911C47.3186 10.3738 47.4217 9.66153 47.3255 9.20129C47.2155 8.70319 46.7507 8.59909 46.2651 8.45464C45.6743 8.27781 45.0168 8.76894 44.576 8.61901C44.0575 8.43322 44.0167 8.16923 43.5903 7.78769C43.0434 7.3125 42.4128 7.18449 42.4148 6.51455C42.4148 5.89392 43.1684 5.84361 43.3831 5.27479C43.4927 4.98987 43.4618 4.69301 43.5589 4.52017C43.8139 4.05594 44.2916 4.07786 44.6766 3.70279C45.2001 3.18078 45.4617 2.1811 45.7331 2.14026ZM22.1661 40.8524C22.6722 40.8399 23.1011 40.4265 23.1006 39.9155L23.1051 23.2167H28.604V41.6234C28.604 42.5255 27.8818 43.2617 26.9793 43.2617H17.36C16.4624 43.2617 15.7317 42.526 15.7317 41.6234V23.2167H21.2352L21.2342 39.9155C21.2342 40.4265 21.6621 40.8399 22.1661 40.8524ZM32.2631 23.2167H48.9229C49.3987 23.2175 49.8546 23.4074 50.1904 23.7444C50.5261 24.0815 50.7141 24.5381 50.7131 25.0139V43.2617H45.2036V26.5236C45.1997 26.0106 44.7793 25.6041 44.2707 25.6041C43.7572 25.6041 43.3457 26.0006 43.3378 26.5092V43.2622H37.8527V26.5097C37.8408 26.0011 37.4283 25.6046 36.9143 25.6046C36.6689 25.6029 36.4328 25.6989 36.2582 25.8713C36.0835 26.0438 35.9847 26.2787 35.9834 26.5241V43.2617H30.4744V25.0139C30.4729 24.5383 30.6607 24.0816 30.9962 23.7445C31.3317 23.4074 31.7875 23.2175 32.2631 23.2167ZM12.0607 38.2249H6.50099V43.2617H1V23.2167H12.0956C13.0888 23.2167 13.8644 24.0242 13.8644 25.0218V36.4173C13.8658 36.8965 13.6764 37.3565 13.3379 37.6957C12.9995 38.0349 12.5399 38.2253 12.0607 38.2249ZM8.36736 26.5585C8.37081 26.3084 8.27459 26.0672 8.09993 25.8881C7.92527 25.7091 7.68653 25.6069 7.43641 25.6041H6.50099V35.7429H7.43641C7.92106 35.7429 8.37184 35.3574 8.36736 34.801V26.5585ZM59.9483 43.2617V38.2289H58.077V43.2617H52.58V25.0139C52.58 24.0177 53.3819 23.2167 54.3691 23.2167H63.6566C64.1326 23.2171 64.5888 23.4068 64.9247 23.7439C65.2606 24.0811 65.4486 24.538 65.4473 25.0139L65.4473 43.2617H59.9483ZM59.9483 35.7469V26.5166C59.9349 26.0066 59.5229 25.6141 59.0099 25.6141C58.5005 25.6132 58.0849 26.0217 58.077 26.5311V35.7469H59.9483Z" fill="currentColor"/>
</svg>
