<svg width="54" height="54" viewBox="0 0 54 54" fill="none" xmlns="http://www.w3.org/2000/svg">
<path d="M44.3988 18.5253C43.8387 18.3325 43.2582 18.15 42.6605 17.9775C42.7588 17.5766 42.8489 17.1809 42.9291 16.7919C44.245 10.4045 43.3846 5.25872 40.4467 3.56453C37.6296 1.94001 33.0225 3.63383 28.3696 7.68314C27.9222 8.07252 27.4735 8.48478 27.025 8.91683C26.7262 8.63097 26.4278 8.35473 26.1302 8.09049C21.2538 3.76071 16.3659 1.93607 13.4309 3.63517C10.6166 5.2644 9.78312 10.1019 10.9676 16.1553C11.082 16.74 11.2157 17.3371 11.3669 17.9442C10.6751 18.1405 10.0073 18.3499 9.36826 18.5726C3.65119 20.5658 0 23.6897 0 26.93C0 30.2766 3.91955 33.6332 9.87433 35.6686C10.3443 35.8292 10.8319 35.981 11.3344 36.1252C11.1713 36.7818 11.0294 37.4252 10.9103 38.0528C9.78091 44.0011 10.6629 48.7243 13.4698 50.3433C16.369 52.0152 21.2348 50.2967 25.9728 46.1551C26.3473 45.8277 26.7231 45.4805 27.0996 45.1166C27.5876 45.5865 28.0748 46.0313 28.5594 46.4484C33.1488 50.3977 37.6814 51.9924 40.4857 50.3689C43.3821 48.6922 44.3234 43.6184 43.1013 37.4452C43.008 36.9738 42.8994 36.4921 42.7774 36.0019C43.1191 35.9009 43.4546 35.7966 43.7817 35.6882C49.9722 33.6371 54 30.3212 54 26.93C54 23.678 50.2311 20.533 44.3988 18.5253ZM43.0561 33.4985C42.7609 33.5962 42.4579 33.6907 42.1492 33.7823C41.4658 31.6188 40.5434 29.3181 39.4147 26.9412C40.4918 24.6209 41.3785 22.3497 42.0428 20.2002C42.5952 20.36 43.1313 20.5286 43.648 20.7065C48.645 22.4268 51.6931 24.9702 51.6931 26.93C51.6931 29.0175 48.4012 31.7274 43.0561 33.4985ZM40.8383 37.8932C41.3787 40.6229 41.4559 43.0909 41.0979 45.0202C40.7763 46.7538 40.1295 47.9096 39.3298 48.3725C37.628 49.3576 33.9887 48.0772 30.0639 44.6997C29.614 44.3126 29.1608 43.8992 28.7061 43.4616C30.2277 41.7975 31.7484 39.8629 33.2326 37.7144C35.8431 37.4827 38.3094 37.104 40.546 36.587C40.6561 37.0313 40.754 37.4671 40.8383 37.8932ZM18.4098 48.2023C16.7471 48.7895 15.4229 48.8063 14.6224 48.3448C12.9191 47.3623 12.211 43.57 13.1769 38.483C13.2875 37.9004 13.4192 37.302 13.571 36.6903C15.7831 37.1795 18.2313 37.5314 20.8481 37.7436C22.3423 39.846 23.9069 41.7785 25.4836 43.4706C25.1391 43.8031 24.796 44.1197 24.4548 44.4181C22.3596 46.2495 20.2601 47.5488 18.4098 48.2023ZM10.6204 33.4857C7.98732 32.5857 5.81281 31.416 4.32229 30.1397C2.98297 28.9927 2.30677 27.854 2.30677 26.93C2.30677 24.9637 5.23831 22.4556 10.1276 20.7509C10.7209 20.5441 11.3419 20.3492 11.9864 20.1661C12.6621 22.3641 13.5485 24.6622 14.6182 26.9861C13.5347 29.3445 12.6356 31.6792 11.9533 33.903C11.4938 33.771 11.0487 33.632 10.6204 33.4857ZM13.2315 15.7123C12.2167 10.5259 12.8907 6.61343 14.5867 5.63167C16.3932 4.58579 20.3881 6.07699 24.5985 9.81555C24.8676 10.0545 25.1378 10.3046 25.4087 10.5634C23.8398 12.248 22.2895 14.166 20.8086 16.256C18.2689 16.4914 15.8379 16.8695 13.6027 17.3759C13.4622 16.8106 13.3377 16.2552 13.2315 15.7123ZM36.5247 21.464C35.9903 20.541 35.4418 19.6399 34.8825 18.7634C36.6055 18.9812 38.2562 19.2703 39.8065 19.6241C39.341 21.1157 38.761 22.6752 38.0781 24.274C37.5883 23.344 37.0702 22.4064 36.5247 21.464ZM27.0258 12.212C28.0898 13.3648 29.1554 14.6518 30.2035 16.0482C29.1473 15.9983 28.0781 15.9724 27 15.9724C25.9321 15.9724 24.8708 15.9977 23.8211 16.0468C24.8703 14.6633 25.9451 13.378 27.0258 12.212ZM17.466 21.4799C16.9323 22.4054 16.4238 23.338 15.9417 24.2723C15.2699 22.6791 14.6952 21.1124 14.2257 19.5997C15.7664 19.2549 17.4094 18.973 19.1214 18.7593C18.5543 19.6439 18.0012 20.5517 17.466 21.4797V21.4799ZM19.1707 35.2651C17.4019 35.0678 15.7342 34.8004 14.1939 34.4651C14.6709 32.9254 15.2583 31.3253 15.9443 29.6978C16.4276 30.6314 16.9381 31.5644 17.4752 32.4919H17.4753C18.0223 33.4369 18.589 34.3625 19.1707 35.2651ZM27.0896 41.8106C25.9962 40.6309 24.9057 39.326 23.8406 37.9224C24.8745 37.9629 25.9287 37.9837 27 37.9837C28.1007 37.9837 29.1887 37.9589 30.2597 37.9112C29.2081 39.3401 28.1464 40.6471 27.0896 41.8106ZM38.1001 29.6149C38.8219 31.2599 39.4303 32.8517 39.9134 34.3652C38.3477 34.7224 36.6573 35.01 34.8762 35.2238C35.4368 34.3355 35.9901 33.4189 36.5339 32.476C37.084 31.5222 37.6063 30.5668 38.1001 29.6149ZM34.5357 31.3236C33.6915 32.7872 32.8249 34.1844 31.9451 35.5032C30.3427 35.6178 28.6873 35.6768 27 35.6768C25.3195 35.6768 23.6849 35.6246 22.1109 35.5225C21.1956 34.1863 20.3102 32.785 19.4715 31.3362H19.4716C18.6351 29.8913 17.8652 28.4342 17.1676 26.9853C17.865 25.5331 18.6329 24.0744 19.4646 22.6321L19.4644 22.6324C20.2984 21.1863 21.176 19.7918 22.0828 18.464C23.6888 18.3426 25.3356 18.2792 26.9999 18.2792H27C28.6718 18.2792 30.3207 18.3431 31.9262 18.4655C32.8192 19.7836 33.6909 21.1736 34.5281 22.6199C35.3748 24.0824 36.1526 25.5314 36.856 26.9526C36.1547 28.3981 35.3786 29.8617 34.5357 31.3236ZM39.2944 5.56304C41.1027 6.60584 41.8059 10.8114 40.6698 16.3263C40.5973 16.6782 40.5157 17.0366 40.4271 17.3998C38.1867 16.8829 35.754 16.4982 33.2069 16.2593C31.7231 14.1463 30.1855 12.2254 28.6421 10.5623C29.057 10.1631 29.4714 9.78248 29.8841 9.42328C33.8707 5.95386 37.5968 4.58406 39.2944 5.56304ZM27 22.108C29.6631 22.108 31.822 24.2668 31.822 26.93C31.822 29.593 29.6631 31.752 27 31.752C24.3369 31.752 22.178 29.593 22.178 26.93C22.178 24.2668 24.3369 22.108 27 22.108Z" fill="currentColor"/>
</svg>
