<svg width="150" height="45" viewBox="0 0 150 45" fill="none" xmlns="http://www.w3.org/2000/svg">
<path d="M92.5608 3V22.9835C92.479 23.0931 109.068 12.7899 109.068 12.7899L92.5608 3Z" fill="white"/>
<path d="M127.44 15.487H123.306C120.982 15.4054 119.525 16.9431 119.579 19.1813V41H113.337V19.1813C113.823 14.138 118.147 10.2007 123.306 10.1735H127.44V15.487Z" fill="white"/>
<path d="M130.843 31.642L130.871 31.6683C131.412 36.6308 135.734 40.5138 140.84 40.5418H145V35.2274H140.84C138.544 35.309 136.518 33.7713 136.571 31.5604V15.2711H143.488V9.66173H136.463V3.89084H130.842L130.843 31.642Z" fill="white"/>
<path d="M57.4665 40.677H51.229V18.8574H51.2554C51.2009 16.7272 48.8779 14.9201 46.5541 14.9201C44.2302 14.9201 41.88 16.7272 41.8527 18.8574V19.0733C41.8527 19.1277 41.8527 19.1541 41.88 19.1813H41.8527V40.677H35.6118V19.2093H35.5846V18.8583C35.5846 13.1673 40.5022 8.55583 46.5532 8.55583C49.7413 8.55583 52.6315 9.85044 54.6309 11.9007C56.6303 9.82409 59.5476 8.50228 62.763 8.50228C68.7868 8.50228 73.7316 13.1409 73.7316 18.8047C73.7316 18.8582 73.7249 18.9186 73.7181 18.9791C73.7112 19.0399 73.7044 19.1008 73.7044 19.1549V40.6778H67.4635V19.1558H67.4362C67.6525 16.8904 65.1933 14.8946 62.7622 14.8946C60.4928 14.8946 57.71 16.5938 57.521 18.6696V19.1277C57.521 19.1413 57.5142 19.1547 57.5073 19.1681C57.5005 19.1815 57.4937 19.1949 57.4937 19.2085H57.4665V40.677Z" fill="white"/>
<path d="M5 31.9106L11.1328 31.3181C11.5645 33.7721 16.3195 35.1203 18.427 35.3906C20.1829 35.6329 25.6676 34.2584 25.6676 31.4524C25.6676 27.8445 21.4644 27.5031 17.2579 27.1615C15.301 27.0025 13.3434 26.8435 11.808 26.3556C7.91821 25.1154 5.75616 22.8228 5.75616 18.8047C5.75616 12.5204 12.6187 8.42153 18.0217 8.42153C21.9396 8.42153 24.8842 9.25796 26.8836 10.9835C28.8557 12.7091 30.3962 14.8665 30.4771 17.7524L24.1817 18.0218C23.8036 15.8916 21.6424 14.3539 18.8596 14.3004C16.9683 14.274 14.3745 15.2439 13.4021 15.946C12.0243 16.944 12.6187 20.8278 14.1583 21.3404C16.5189 22.121 18.6847 22.0811 20.7278 22.0435C22.9872 22.0018 25.0966 21.9629 27.1535 23.0396C30.3417 24.5773 31.6113 28.6226 31.6113 31.0767C31.6113 38.1141 24.4525 40.7305 18.3734 40.7305C13.1867 40.7297 5.67527 37.9254 5 31.9106Z" fill="white"/>
<path d="M108.339 24.953C108.258 22.0944 107.366 19.4516 105.934 17.1862L105.682 17.3208C104.199 18.1116 102.715 18.9031 101.206 19.6947C102.368 21.3123 103.017 23.281 103.017 25.4112C103.017 30.8863 98.5309 35.3643 93.0479 35.3643C87.5367 35.3643 83.0508 30.8863 83.0508 25.4112C83.0508 20.6926 86.3735 16.7281 90.8041 15.7029C90.8554 14.0269 90.9287 12.351 91.0029 10.654L91.0204 10.2551C83.5379 11.253 77.7551 17.6716 77.7551 25.4112C77.7551 33.8265 84.6194 40.677 93.0479 40.677C96.8193 40.6789 100.458 39.2851 103.259 36.7651V40.677H108.365V24.953H108.339Z" fill="white"/>
</svg>
