<svg width="36" height="42" viewBox="0 0 36 42" fill="none" xmlns="http://www.w3.org/2000/svg">
<path d="M16.0762 1.8692C21.5583 -1.62349 29.1069 -0.075325 33.0615 5.29791L33.248 5.5567C35.1177 8.17366 35.8533 11.4341 35.29 14.6006C35.0199 16.0974 34.4492 17.5241 33.6123 18.794C34.8335 21.1231 35.2438 23.7928 34.7773 26.3809C34.2201 29.4877 32.3796 32.2159 29.708 33.8965L19.9267 40.1309C14.3583 43.6791 6.6557 42.0249 2.75487 36.4424C0.885647 33.8254 0.149064 30.5659 0.711902 27.3995C0.982199 25.9026 1.55346 24.4761 2.39061 23.2061C1.16883 20.8774 0.759085 18.2073 1.22557 15.6192C1.78308 12.5124 3.62319 9.78343 6.29491 8.1026L16.0762 1.8692ZM29.2246 8.12018C27.3673 5.4428 24.0365 4.20843 20.8828 5.02838C20.1797 5.21628 19.5095 5.51063 18.8955 5.90143L9.11229 12.1368C7.50502 13.1475 6.39777 14.7895 6.06249 16.6583C5.72392 18.5629 6.16645 20.5237 7.291 22.0977C9.14827 24.7751 12.4791 26.0095 15.6328 25.1895C16.3355 25.0016 17.0053 24.7077 17.6191 24.3174L21.3525 21.9376C21.5379 21.8195 21.7408 21.7297 21.9531 21.6729C22.9032 21.4267 23.9065 21.799 24.4658 22.6055C24.8042 23.0803 24.9373 23.672 24.8359 24.2462C24.7343 24.8088 24.4007 25.3027 23.917 25.6075L14.1328 31.8428C13.9471 31.961 13.7439 32.0497 13.5312 32.1065C12.5816 32.3529 11.5794 31.9811 11.0205 31.1749C10.7212 30.7518 10.5806 30.2361 10.625 29.7198L10.6592 29.3575L10.2949 29.2471C8.91973 28.8322 7.6253 28.1846 6.46776 27.334L5.96678 26.9659L5.78221 27.5284C5.68338 27.827 5.60556 28.1321 5.54882 28.4415C5.21016 30.3463 5.65361 32.3077 6.77831 33.8819C8.57761 36.4755 11.759 37.7156 14.8232 37.045L15.1191 36.9737C15.8225 36.7858 16.4932 36.4916 17.1074 36.1006L26.8906 29.8653C28.4977 28.8541 29.6049 27.2127 29.9404 25.3438C30.2791 23.4391 29.8355 21.4785 28.7109 19.9044C26.8537 17.227 23.5237 15.9918 20.3701 16.8116C19.6672 16.9994 18.9965 17.2947 18.3828 17.6856L14.6504 20.0645C14.4647 20.1826 14.2614 20.2712 14.0488 20.3282C13.0987 20.5743 12.0963 20.2021 11.5371 19.3956C11.1986 18.9208 11.065 18.33 11.167 17.7559C11.2681 17.1931 11.6019 16.6992 12.0859 16.3946L21.8701 10.1592C22.0557 10.0411 22.2581 9.95141 22.4707 9.89459C23.4205 9.64807 24.4235 10.0207 24.9824 10.8272C25.2811 11.2503 25.4209 11.7653 25.3769 12.2813L25.3437 12.6446L25.707 12.7549C27.0824 13.1699 28.3767 13.817 29.5342 14.668L30.0351 15.0352L30.2197 14.4737C30.3183 14.175 30.3961 13.8699 30.4531 13.5606C30.7918 11.6558 30.3492 9.69438 29.2246 8.12018Z" fill="currentColor"/>
</svg>
