<svg width="150" height="45" viewBox="0 0 150 45" fill="none" xmlns="http://www.w3.org/2000/svg">
<path d="M3.93037 16.9304C1.93826 16.4996 0.430725 14.7767 0 13.0538L24.6052 13V13.0538C24.1744 14.7767 22.7207 16.392 20.6748 16.9304H14.537L14.2139 17.038V32.4903H10.3912V17.038L10.0682 16.9304H3.93037Z" fill="currentColor"/>
<path d="M37.85 16.9304H52.3869C54.4329 16.5535 55.9404 14.7229 56.3173 13H33.8658C34.2965 14.7229 35.804 16.4996 37.85 16.9304Z" fill="currentColor"/>
<path d="M146.07 16.9304H131.533C129.541 16.4996 128.033 14.7229 127.602 13H150C149.569 14.7229 148.116 16.5535 146.07 16.9304Z" fill="currentColor"/>
<path d="M128.195 32.5441V20.7531H149.515V32.5441H145.747V24.6834H131.963V32.5441H128.195Z" fill="currentColor"/>
<path d="M116.726 32.5441C118.611 31.7365 119.634 30.3367 120.065 28.7215H103.105V13.0538H99.2821V32.5441H116.726Z" fill="currentColor"/>
<path d="M84.476 16.8765H71.0158L71.0696 20.7531H88.514V32.5441H66.1701C67.0854 30.6597 68.916 29.206 71.0696 28.6138H84.7451V24.5757H67.3008V13.0538H88.6217C88.191 14.7229 86.5219 16.2843 84.476 16.8765Z" fill="currentColor"/>
<path d="M52.3869 24.6296H37.85C35.804 24.1989 34.2965 22.4221 33.8658 20.6992H56.3173C55.9404 22.4221 54.4329 24.2527 52.3869 24.6296Z" fill="currentColor"/>
<path d="M37.85 32.5441H52.3869C54.4329 32.1673 55.9404 30.3367 56.3173 28.6138H33.8658C34.2965 30.3367 35.804 32.1673 37.85 32.5441Z" fill="currentColor"/>
</svg>
