<svg viewBox="0 0 54 54" fill="none" xmlns="http://www.w3.org/2000/svg">
<g clip-path="url(#clip0_2_24)">
<path d="M0.0183704 0.756194C-0.0940497 0.301081 0.328056 -0.105218 0.778549 0.0244813L13.905 3.80364C14.0226 3.80322 14.1388 3.8367 14.238 3.89957L40.1263 11.3529C40.2336 11.3551 40.3393 11.3855 40.4314 11.4407L53.5589 15.2203C54.0099 15.3501 54.151 15.9197 53.8127 16.245L14.1987 54.3506C13.8606 54.6758 13.2972 54.513 13.1847 54.0575L6.61345 27.4553C6.60466 27.428 6.59776 27.4001 6.59282 27.3719L0.0183704 0.756194ZM11.2626 41.195L14.1145 52.7403L22.7026 44.4789L11.2626 41.195ZM20.1088 32.0648L11.794 40.0795L22.8708 43.2595L20.1088 32.0648ZM21.3431 31.9792L24.0962 43.1384L32.3884 35.162L21.3431 31.9792ZM8.03925 28.1456L10.8044 39.3407L19.1095 31.3356L8.03925 28.1456ZM29.9143 22.6026L21.4661 30.746L32.7245 33.9904L29.9143 22.6026ZM31.0981 22.313L33.9082 33.7002L42.3797 25.5515L31.0981 22.313ZM16.8427 18.8239L8.37634 26.9744L19.6554 30.2244L16.8427 18.8239ZM18.022 18.5164L20.784 29.7108L29.0988 21.6961L18.022 18.5164ZM4.72163 14.7148L7.53258 26.0951L15.9929 17.9504L4.72163 14.7148ZM39.7776 13.1348L31.4628 21.1495L42.5396 24.3295L39.7776 13.1348ZM40.966 12.8628L43.7672 24.2167L52.2063 16.0991L40.966 12.8628ZM26.6519 9.38108L18.3743 17.3496L29.399 20.5143L26.6519 9.38108ZM27.8332 9.0817L30.599 20.2897L38.9163 12.2726L27.8332 9.0817ZM13.5712 5.58564L5.25638 13.6003L16.3332 16.7803L13.5712 5.58564ZM14.7606 5.31795L17.5156 16.4843L25.8103 8.4993L14.7606 5.31795ZM1.45423 1.48703L4.26452 12.864L12.7067 4.72669L1.45423 1.48703Z" fill="currentColor"/>
</g>
<defs>
<clipPath id="clip0_2_24">
<rect width="54" height="54" fill="white"/>
</clipPath>
</defs>
</svg>
