<svg width="55" height="55" viewBox="0 0 55 55" fill="none" xmlns="http://www.w3.org/2000/svg">
<path d="M12.1023 8.77898L27.4648 0L51.4921 13.7286V20.6485L27.4648 6.91686L12.1324 15.6778L12.1023 8.77898Z" fill="white"/>
<path d="M9.44433 37.7048L24.7617 46.4568L18.7699 49.9498L3.4375 41.1888V13.7286L9.40528 10.3197L9.43832 17.2276L9.44433 17.2306V37.7048Z" fill="white"/>
<path d="M45.4853 20.3301V37.7048L27.4648 48.0005V48.0096L21.479 51.4995L27.4648 54.9204L51.4921 41.1888V23.763L45.4853 20.3301Z" fill="white"/>
<path d="M27.4649 10.0315L13.508 18.0056L28.8284 26.7605L42.7823 18.7835L27.4649 10.0315Z" fill="white"/>
<path d="M12.1475 20.3422V36.1342L27.4649 44.8891V29.0942L12.1475 20.3422Z" fill="white"/>
</svg>
